# xmcd CD database file
#
# Track frame offsets:
#	150
#	22570
#	44767
#	67127
#	85930
#	107675
#	124152
#	147802
#	169652
#	189467
#	211270
#	236602
#
# Disc length: 3466 seconds
#
# Revision: 0
# Processed by: cddbd v1.5.1PL0 Copyright (c) Steve Scherf et al.
# Submitted via: CDex 1.51
#
DISCID=a20d880c
DTITLE=J-WALK - DISTANCE THE BEST SELECTION
DYEAR=1900
DGENRE=JPop
TTITLE0=JOE
TTITLE1=野良犬[A STRAY DOG]
TTITLE2=俺のジャーク・タウン[JERK TOWN]
TTITLE3=ONCE IN MY LIFE[青い風、遥るか]
TTITLE4=WIND'S BLUES[ウィンズ・ブルース吹く街角]
TTITLE5=RAB-A-DUM-DUM-DUM
TTITLE6=JUST BECAUSE
TTITLE7=MORNING GLOW[朝焼けの中で・・・・・・・]
TTITLE8=JAY WALKER I
TTITLE9=SHAKE DOWN
TTITLE10=沈みゆく夕陽[THE LONGEST DAY]
TTITLE11=YOU'RE MY FRIEND
EXTD=
EXTT0=
EXTT1=
EXTT2=
EXTT3=
EXTT4=
EXTT5=
EXTT6=
EXTT7=
EXTT8=
EXTT9=
EXTT10=
EXTT11=
PLAYORDER=
